<?xml version="1.0" encoding="utf-8"?>
<!-- Generator: Adobe Illustrator 24.1.1, SVG Export Plug-In . SVG Version: 6.00 Build 0)  -->
<svg version="1.1" id="Layer_1" xmlns="http://www.w3.org/2000/svg" xmlns:xlink="http://www.w3.org/1999/xlink" x="0px" y="0px"
	 viewBox="0 0 2048 2048" style="enable-background:new 0 0 2048 2048;" xml:space="preserve">
<g>
	<g>
		<g>
			<path d="M1164.05,1281.12c-50.66,0-101.05,0-151.81,0c0-152.68,0-305.24,0-457.98c-12.09,0-23.82,0-35.99,0c0,1.51,0,2.95,0,4.39
				c0.01,65.97,0.2,131.94-0.11,197.91c-0.08,17.86-1.02,35.78-2.76,53.56c-2.97,30.35-9.41,59.96-21.95,88.01
				c-14.84,33.2-38.55,57.69-70.83,74.51c-30.07,15.66-61.32,27.73-94.65,33.93c-13.15,2.45-26.54,3.7-39.87,5.03
				c-8.49,0.85-17.09,1.47-25.59,1.1c-24.12-1.06-47.93-4.58-71.34-10.62c-36.56-9.44-70.67-24.45-101.98-45.54
				c-24.06-16.21-39.89-39.13-51.02-65.53c-8.72-20.67-13.97-42.28-17.28-64.42c-3.4-22.74-4.78-45.59-4.77-68.58
				c0.08-115.71,0.05-231.41,0.06-347.12c0-1.46,0-2.92,0-4.59c50.58,0,100.82,0,151.51,0c0,1.59,0,3.03,0,4.47
				c0.02,127.14-0.04,254.28,0.17,381.42c0.03,16.02,3,31.69,9.92,46.39c10.25,21.78,28.35,34.58,49.83,43.4
				c15.91,6.54,32.68,8.3,49.61,6.77c25.76-2.32,48.34-12.38,66.91-30.54c12.47-12.2,19.13-27.64,21.75-44.61
				c1.59-10.31,2.33-20.85,2.35-31.28c0.21-100.16,0.09-200.31,0.27-300.47c0.05-27.76,11.65-49.85,34.87-65.28
				c10.24-6.81,21.79-10.02,34.27-10.01c87.92,0.07,175.84,0.04,263.77,0.04c1.47,0,2.95,0,4.66,0
				C1164.05,877.38,1164.05,1079.11,1164.05,1281.12z"/>
			<path d="M1353.52,650.41c0,210.53,0,420.4,0,630.55c-50.73,0-101.19,0-151.92,0c0-255.55,0-511.23,0-767.4c1.12,0,2.33,0,3.53,0
				c96.95,0,193.91,0.04,290.86-0.05c22.38-0.02,40.91,8.34,56.11,24.51c12.06,12.83,19.61,27.89,20.98,45.54
				c0.79,10.22,0.65,20.52,0.75,30.78c0.11,11.88,0.03,23.76,0.03,36.06C1500.45,650.41,1427.24,650.41,1353.52,650.41z"/>
			<path d="M1088.84,651.46c-24.45,0-48.91-0.06-73.36,0.07c-3.35,0.02-4.26-1.03-4.24-4.3c0.14-21.37,0.17-42.74,0.09-64.11
				c-0.06-16.82,6.21-31.14,16.7-43.92c11.83-14.4,27.17-22.73,45.29-26.2c2.66-0.51,5.42-0.77,8.13-0.78
				c26.85-0.06,53.71,0.02,80.56-0.11c3.5-0.02,4.42,1.04,4.42,4.48c-0.11,43.42-0.07,86.85-0.07,130.27c0,4.61-0.01,4.6-4.49,4.6
				C1137.52,651.46,1113.18,651.46,1088.84,651.46z M1152.5,514.49c-3.75,0-7.23,0-10.61,0c-2.88,33.44-16.31,61.55-41,83.93
				c-24.67,22.37-54.13,32.58-87.3,32.37c0,3.92,0,7.29,0,10.65C1084.11,644.6,1149.32,587.76,1152.5,514.49z M1013.99,602.45
				c-0.14,2.7-0.14,5.2-0.43,7.66c-0.3,2.56,0.7,3.68,3.2,3.47c7.92-0.67,16.04-0.47,23.73-2.2c37.88-8.52,64.05-31.05,78.14-67.3
				c3.66-9.42,5.74-19.25,5.95-29.54c-3.84,0-7.4,0-10.93,0C1110.43,564.07,1067.99,604.83,1013.99,602.45z M1164.28,554.97
				c-16.35,43.96-45.88,75.36-89.86,94.41c8.72,0,16.43,0.05,24.14-0.06c1.02-0.02,2.08-0.79,3.04-1.37
				c26.33-15.79,46.82-37.17,61.39-64.19c0.67-1.25,1.22-2.74,1.24-4.13C1164.33,571.42,1164.28,563.19,1164.28,554.97z
				 M1014.23,572.92c0,3.63,0,7.02,0,10.94c20.36,1.2,38.51-4.36,54.06-17.42c16.03-13.46,25.02-30.79,26.92-52.01
				c-3.93,0-7.41,0-10.88,0C1079.39,550.88,1050.77,574.86,1014.23,572.92z M1066.85,517.24c-2.75,0.94-5.08,1.74-7.41,2.53
				c-3.09,1.05-5.3,2.72-6.89,5.93c-4.8,9.72-12.97,15.6-23.24,18.71c-1.03,0.31-2.34,0.69-2.86,1.47
				c-2.26,3.38-4.27,6.93-6.51,10.65C1045.01,556.44,1064.05,537.31,1066.85,517.24z M1164.28,616.91
				c-10.49,10.83-21,21.68-31.48,32.49c4.44,0,9.1,0.09,13.75-0.07c1.1-0.04,2.42-0.66,3.21-1.44c4.47-4.39,8.85-8.87,13.16-13.42
				c0.71-0.74,1.27-1.95,1.3-2.96C1164.36,626.52,1164.28,621.52,1164.28,616.91z"/>
		</g>
	</g>
	<g>
		<g>
			<g>
				<path d="M662.99,1515.18c-3.34,0-6.15,0-9.43,0c0-1.51,0.02-2.94,0-4.36c-0.2-10.17-0.06-20.36-0.74-30.49
					c-0.4-6.02-6.83-8.21-11.57-4.38c-3.16,2.55-4.76,5.94-4.75,10.06c0.01,8.38,0,16.76,0,25.13c0,1.23,0,2.45,0,3.91
					c-3.14,0-6.03,0-9.43,0c0-0.98,0-2.06,0-3.14c0-8.6,0.05-17.21-0.04-25.81c-0.02-2.12-0.28-4.31-0.84-6.35
					c-1.34-4.85-5.57-6.73-10.08-4.49c-3.82,1.89-6.4,4.42-6.22,9.41c0.36,10.04,0.11,20.11,0.11,30.39c-3.15,0-6.03,0-9.18,0
					c0-16.26,0-32.58,0-49.36c3.34,0.84,7.05-1.7,9.81,1.93c9.15-4.73,14.57-3.9,22.23,3.46c4.24-4.21,9.08-6.83,15.36-6.16
					c8.05,0.86,12.91,5.27,14.13,13.41c0.41,2.78,0.61,5.61,0.63,8.42C663.03,1496.12,662.99,1505.49,662.99,1515.18z"/>
				<path d="M931.42,1515.12c-3.21,0-6.1,0-9.44,0c0-3.64,0-7.22,0-10.8c0-6.57,0.03-13.13-0.02-19.7c-0.01-1.45-0.33-2.9-0.53-4.35
					c-0.38-2.75-1.43-5.04-4.4-5.77c-3.2-0.79-6.1-0.16-8.36,2.35c-2.43,2.69-3.75,5.82-3.73,9.53c0.06,9.49,0.02,18.98,0.02,28.67
					c-3.14,0-6.04,0-9.49,0c0-0.98,0-2.05,0-3.12c0-8.49,0-16.98,0-25.47c0-0.79,0.02-1.59-0.01-2.38
					c-0.16-4.96-2.36-8.73-5.57-9.58c-3.23-0.85-8.45,1.58-10.64,5.23c-0.64,1.07-0.82,2.55-0.83,3.85
					c-0.06,10.4-0.04,20.79-0.04,31.44c-3.11,0-6,0-9.15,0c0-16.21,0-32.53,0-49.27c3.35,0.57,6.97-1.5,9.99,1.83
					c8.63-4.69,14.95-3.8,21.37,2.85c3.97-1.88,7.57-4.59,11.53-5.27c11.38-1.95,18.8,4.67,19.21,16.96
					C931.7,1492.98,931.42,1503.85,931.42,1515.12z"/>
				<path d="M1512.54,1467.5c2.74-3.51,6.41-0.87,9.9-1.99c0.08,1.63,0.18,2.82,0.18,4.01c0.01,13.8,0.1,27.61-0.06,41.41
					c-0.04,3.45-0.58,6.99-1.5,10.33c-2.41,8.78-8.91,13.08-17.48,14.27c-7.71,1.07-15.02-0.64-22.06-5.05
					c2.05-2.55,4.05-5.04,6.02-7.5c15.23,6.49,24.47,2.88,25.33-9.99c-4.37,2.95-9.17,4.03-14.19,3.46
					c-8.15-0.92-13.76-5.52-16.54-13.13c-2.87-7.87-2.76-15.95,0.05-23.86C1486.49,1467.38,1499.35,1460.59,1512.54,1467.5z
					 M1513.15,1490.38c0-2.6,0.04-5.2-0.02-7.79c-0.02-0.87-0.05-1.92-0.52-2.56c-6.07-8.3-15.43-7.06-19.64-0.89
					c-4.02,5.88-4.34,17.28-0.49,23.19c2.7,4.14,7.4,5.65,12.8,4.1c4.93-1.42,7.87-5.14,7.88-9.95
					C1513.15,1494.45,1513.15,1492.42,1513.15,1490.38z"/>
				<path d="M512.91,1446.06c3.04,0,5.63-0.15,8.19,0.1c0.69,0.07,1.83,1.32,1.82,2.02c-0.11,15.73,0.38,31.51-0.77,47.16
					c-1.3,17.75-20.59,27.12-36.25,18.43c-7.64-4.24-10.62-11.52-10.87-19.51c-0.48-15.72-0.13-31.47-0.12-47.21
					c0-0.2,0.15-0.4,0.32-0.8c2.92,0,5.91,0,9.43,0c0,1.57-0.01,2.99,0,4.42c0.12,14.15-0.16,28.31,0.48,42.44
					c0.5,11.04,10.9,16.85,20.46,12c5.98-3.04,7.13-8.87,7.24-14.7c0.25-13.36,0.08-26.72,0.08-40.09
					C512.91,1449.08,512.91,1447.84,512.91,1446.06z"/>
				<path d="M1278.7,1515.16c-3.35,0-6.16,0-9.43,0c0-1.32,0-2.52,0-3.72c0-20.95,0.06-41.89-0.07-62.84
					c-0.02-3.09,0.76-4.36,3.94-3.95c1.66,0.22,3.37,0.04,5.36,0.04c0,7.84,0,15.49,0,22.8c4.18-0.96,8.08-2.43,12.06-2.66
					c8.9-0.53,15.92,5.23,16.45,14.44c0.68,11.82,0.17,23.72,0.17,35.8c-2.76,0-5.65,0-8.91,0c-0.06-1.31-0.15-2.61-0.17-3.92
					c-0.1-9.62-0.13-19.23-0.32-28.85c-0.07-3.35-1.32-6.33-4.74-7.55c-3.57-1.27-6.9-0.52-9.73,2.1c-3,2.78-4.87,5.82-4.7,10.3
					C1278.95,1496.4,1278.7,1505.67,1278.7,1515.16z"/>
				<path d="M1189.11,1493.53c1.29,14.27,10.2,16.86,25.59,7.68c1.49,2.5,2.98,5.01,4.44,7.46c-5.86,5.91-17.43,10-26,6.56
					c-8.05-3.22-13.23-11.39-13.69-21.23c-0.28-5.96,0.12-11.71,2.81-17.13c5.94-11.93,20.56-15.97,30.18-8.21
					c5.73,4.63,6.96,11.37,7.7,18.18c0.22,2.01,0.03,4.06,0.03,6.68c-5.25,0-10.4,0-15.55,0
					C1199.54,1493.53,1194.46,1493.53,1189.11,1493.53z M1210.02,1483.96c-0.83-6.57-4.23-9.95-9.5-9.79
					c-5.61,0.17-9.86,4.19-10.34,9.79C1196.73,1483.96,1203.27,1483.96,1210.02,1483.96z"/>
				<path d="M594.36,1515.12c-3.29,0-6.19,0-9.3,0c-0.08-1.5-0.15-2.93-0.25-4.87c-3.6,3.6-7.33,6.48-12.39,6.27
					c-4.81-0.21-9.04-1.91-12.13-5.78c-5.07-6.36-3.83-16.26,2.72-22.33c6.28-5.82,14.72-5.84,21.8,0.33
					c0.3-4.79-0.21-8.94-3.13-12.49c-2.34-2.85-5.56-2.5-8.4-1.37c-3.2,1.26-6.11,3.24-9.57,5.14c-1.57-1.69-3.52-3.79-5.43-5.86
					c5.47-7.82,17.5-11.65,26.07-8.34c5.9,2.28,8.89,7.03,9.31,13.01c0.58,8.21,0.52,16.48,0.68,24.72
					C594.42,1507.27,594.36,1510.99,594.36,1515.12z M576.35,1493.2c-0.18-0.21-0.36-0.41-0.54-0.62c-2.53,1.42-5.53,2.37-7.49,4.35
					c-3.47,3.48-1.62,8.81,3.07,10.01c4.06,1.04,10.17-1.43,12.43-5.02c2.07-3.3,1.06-6.46-2.58-7.66
					C579.66,1493.73,577.98,1493.54,576.35,1493.2z"/>
				<path d="M964.03,1510.7c-8.56,7.28-16.93,7.63-23.24,1.26c-5.44-5.49-5.35-15.18,0.21-21.98c5.69-6.96,14.31-7.78,23.37-1.64
					c-0.32-2.89-0.3-5.31-0.9-7.56c-1.58-6-5.13-7.96-10.93-5.78c-3.11,1.17-5.91,3.15-8.8,4.75c-1.91-1.79-4-3.77-6.2-5.84
					c6.66-7.47,14.79-10.42,24.39-8.68c6.61,1.2,11.42,7.5,11.58,15.25c0.24,11.42,0.06,22.84,0.06,34.54c-3.06,0-6.03,0-9.26,0
					C964.24,1513.71,964.15,1512.4,964.03,1510.7z M955.26,1493c-1.84,0.79-4.44,1.53-6.59,2.93c-2.42,1.57-3.05,4.5-2.04,6.94
					c0.69,1.68,2.67,3.34,4.45,3.96c4.06,1.41,10.49-1.55,12.58-5.25c1.66-2.95,0.58-6.11-2.62-7.24
					C959.47,1493.79,957.79,1493.57,955.26,1493z"/>
				<path d="M1401.15,1489.67c-0.32,10.6-2.92,19.28-12.15,24.21c-15.12,8.09-32.71-2.41-33.49-19.8
					c-0.27-6.03,0.19-11.91,3.07-17.41c4.61-8.81,13.43-13.05,24.51-11.64c8.13,1.03,15.4,8.34,17.16,17.43
					C1400.77,1485.1,1400.93,1487.81,1401.15,1489.67z M1391.81,1490.19c-0.46-2.32-0.81-5.12-1.6-7.79
					c-1.57-5.26-5.35-7.84-10.75-8.23c-5.33-0.38-10.08,2.03-12.29,6.7c-2.67,5.63-2.96,11.51-0.9,17.42
					c2.04,5.85,6.63,9.01,12.59,8.83c5.9-0.18,10.28-3.71,11.82-9.74C1391.22,1495.22,1391.39,1492.95,1391.81,1490.19z"/>
				<path d="M834.55,1490.65c-0.18,8.16-2.27,15.58-8.71,20.89c-13.13,10.82-32.77,3.74-36.28-12.95
					c-1.57-7.45-1.22-14.81,2.26-21.76c4.49-8.96,13.76-13.35,24.75-11.8c8.15,1.15,15.35,8.52,17.02,17.58
					C834.07,1485.27,834.23,1487.98,834.55,1490.65z M825.03,1490.45c-0.3-2.04-0.5-4.06-0.91-6.03
					c-1.31-6.44-5.24-9.86-11.62-10.24c-6.15-0.37-10.86,2.85-12.92,8.78c-1.64,4.73-1.72,9.52-0.46,14.31
					c1.63,6.2,6.68,9.98,12.92,9.85c6.28-0.13,10.73-4.01,12.08-10.65C824.53,1494.49,824.73,1492.48,825.03,1490.45z"/>
				<path d="M1475.8,1490.29c-0.64,10.51-3.44,19.49-13.35,24.16c-14.81,6.97-31.2-3.16-32.26-19.58
					c-0.37-5.7-0.14-11.25,2.12-16.57c4.15-9.76,13.5-14.67,25.2-13.26c8.57,1.03,16.1,9.01,17.53,18.62
					C1475.38,1486,1475.58,1488.36,1475.8,1490.29z M1439.45,1490.63c-0.22,0.11-0.44,0.22-0.66,0.33
					c1.26,3.65,2.04,7.57,3.89,10.89c2.43,4.34,6.92,5.72,11.68,5.18c4.76-0.54,8.46-2.9,10.16-7.73c1.82-5.16,1.96-10.39,0.6-15.61
					c-1.7-6.49-5.94-9.69-12.17-9.54c-6.53,0.15-11.11,3.8-12.56,10.17C1439.94,1486.39,1439.76,1488.53,1439.45,1490.63z"/>
				<path d="M1072.22,1490.67c-0.18,12.25-6.08,21.52-15.89,24.72c-14.35,4.68-28.74-5.13-29.76-20.14
					c-0.41-5.93-0.2-11.71,2.22-17.22c4.25-9.7,13.88-14.6,25.37-12.97c8.7,1.24,16.1,9.47,17.29,19.24
					C1071.71,1486.42,1071.96,1488.55,1072.22,1490.67z M1062.43,1490.97c-0.18-2.13-0.23-4.06-0.53-5.95
					c-0.97-6.28-5-10.13-11.18-10.8c-6.1-0.66-11.4,2.21-13.19,8.17c-1.17,3.89-1.53,8.21-1.28,12.28c0.44,7.06,5.61,12,12.05,12.44
					c6.65,0.45,11.78-3.41,13.41-10.3C1062.19,1494.85,1062.22,1492.79,1062.43,1490.97z"/>
				<path d="M1529.37,1533.74c0.83-2.83,1.68-5.71,2.52-8.59c5.6,1.81,7.19,0.72,9.86-4.34c3.15-5.94,2.83-11.3,0.28-17.46
					c-4.69-11.32-8.54-22.98-12.73-34.51c-0.3-0.82-0.51-1.67-0.94-3.08c3.13,0,5.91-0.19,8.64,0.12c0.81,0.09,1.76,1.49,2.12,2.47
					c3.71,9.99,7.31,20.02,11.18,30.71c2.46-6.41,4.7-12.26,6.94-18.12c1.57-4.1,3.28-8.14,4.65-12.31
					c0.71-2.16,1.68-3.17,4.05-2.94c2.22,0.21,4.48,0.05,7.27,0.05c-2.09,5.42-3.99,10.43-5.94,15.41
					c-5.33,13.62-10.62,27.26-16.07,40.84c-1.25,3.11-2.79,6.21-4.76,8.9C1542.48,1536.32,1535.34,1537.39,1529.37,1533.74z"/>
				<path d="M1321.5,1515.19c-3.37,0-6.18,0-9.24,0c0-16.34,0-32.58,0-48.85c4.67-1.43,8.6-0.82,9.59,1.7
					c5.11-3.36,10.72-4.09,16.5-2.6c6.63,1.71,11.35,7.84,11.59,15.82c0.33,11.18,0.08,22.38,0.08,33.8c-3.07,0-5.96,0-9.4,0
					c0-1.12,0-2.31,0-3.5c0-8.15,0-16.31,0-24.46c0-1.36,0.05-2.73-0.1-4.07c-0.5-4.58-3.38-8.14-6.87-8.62
					c-3.79-0.52-10.48,2.8-11.81,6.02c-0.37,0.89-0.32,1.99-0.32,2.99c-0.02,9.4-0.01,18.8-0.01,28.2
					C1321.5,1512.71,1321.5,1513.82,1321.5,1515.19z"/>
				<path d="M1087.12,1467c4.39-0.8,8.43-2.27,12.42-2.13c9.73,0.33,15.71,6.74,16,17c0.31,10.96,0.07,21.93,0.07,33.15
					c-3.09,0-6.06,0-9.41,0c0-9.09,0.05-18.11-0.03-27.12c-0.02-2.35-0.16-4.76-0.72-7.03c-1.19-4.75-4.31-6.96-8.5-6.41
					c-5.77,0.75-9.93,4.57-9.93,9.14c-0.01,10.39,0,20.78,0,31.42c-3.11,0-5.99,0-9.16,0c0-16.18,0-32.5,0-49.29
					C1081.03,1466.53,1084.7,1464.09,1087.12,1467z"/>
				<path d="M721.33,1466.98c4.36-0.8,8.29-2.18,12.19-2.11c8.67,0.16,14.93,5.2,15.54,13.89c0.84,11.99,0.21,24.09,0.21,36.33
					c-2.53,0-5.41,0-8.73,0c0-1.46,0.03-2.89,0-4.32c-0.2-9.48-0.13-18.98-0.72-28.44c-0.34-5.39-3.95-8.32-8.25-7.93
					c-6.15,0.56-10.41,4.54-10.41,9.73c0,10.27,0,20.53,0,30.97c-3.2,0-6.09,0-9.22,0c0-16.33,0-32.56,0-49.3
					C715.25,1466.35,718.79,1464.31,721.33,1466.98z"/>
				<path d="M1173.43,1515.15c-3.64,0-6.67,0-10.09,0c0-19.62,0-39.13,0-58.93c-5.99,0-11.6,0-17.72,0c0-3.07-0.12-5.86,0.1-8.62
					c0.04-0.56,1.32-1.47,2.03-1.47c14.24-0.09,28.49-0.07,43.01-0.07c0,3.33,0,6.43,0,9.93c-5.57,0-11.27,0-17.32,0
					C1173.43,1475.89,1173.43,1495.4,1173.43,1515.15z"/>
				<path d="M785.66,1447.63c-1.36,2.86-2.65,5.59-3.97,8.38c-2.85-1.08-5.4-4.27-8.45-1.61c-3.41,2.98-2.28,7.19-2.42,11.38
					c3.82,0,7.28,0,10.94,0c0,3.2,0,6.08,0,9.26c-3.52,0-6.99,0-10.87,0c0,13.46,0,26.63,0,40.01c-3.2,0-5.98,0-9.14,0
					c0-13.08,0-26.26,0-39.76c-2.67,0-4.99,0-7.62,0c0-3.27,0-6.22,0-9.52c2.49,0,4.81,0,7.43,0c-0.17-8.23-0.24-16.24,8.39-20.37
					C774.77,1443.11,779.64,1443.84,785.66,1447.63z"/>
				<path d="M1263.9,1470.42c-1.79,2.54-3.47,4.91-5.22,7.39c-2.11-0.93-4.09-1.95-6.16-2.68c-7.08-2.45-13.43,0.13-16.62,6.9
					c-2.74,5.81-2.79,11.82-0.25,17.69c2.81,6.49,9.15,8.94,16.04,6.28c2.26-0.88,4.36-2.18,6.74-3.39
					c1.68,2.47,3.38,4.97,5.28,7.75c-8.14,4.97-16.43,8.43-25.84,4.47c-9.02-3.8-12.65-11.5-13.42-20.71
					c-0.72-8.71,1.45-16.71,7.82-22.96C1240.69,1462.9,1252.82,1462.65,1263.9,1470.42z"/>
				<path d="M1003.37,1504.48c1.02,3.03,1.95,5.78,2.94,8.71c-4.16,2.64-8.51,3.73-13.22,2.53c-4.86-1.24-7.84-5.99-7.9-12.49
					c-0.08-8.15-0.02-16.29-0.02-24.44c0-1.1,0-2.2,0-3.54c-2.56,0-4.78,0-7.25,0c0-3.21,0-6.18,0-9.42c2.35,0,4.57,0,7.2,0
					c0-4.26,0-8.27,0-12.47c3.3,0,6.19,0,9.38,0c0,4,0,7.92,0,12.25c3.71,0,7.14,0,10.8,0c0,3.29,0,6.18,0,9.44
					c-3.35,0-6.79,0-10.65,0c0,6.1,0,11.82,0,17.55c0,3.06-0.03,6.11,0.01,9.17c0.06,5.03,2.1,6.21,6.57,3.84
					C1001.83,1505.29,1002.42,1504.97,1003.37,1504.48z"/>
				<path d="M1406.5,1444.88c3.26,0,6.14,0,9.45,0c0,1.36,0,2.57,0,3.77c0,17.32,0,34.64,0,51.96c0,6.52,1.59,7.51,7.36,4.61
					c0.99-0.5,1.98-0.98,3.52-1.74c0,3.27,0.12,6.15-0.08,9c-0.05,0.75-0.93,1.72-1.68,2.09c-9.32,4.66-18.3-0.2-18.48-10.54
					C1406.26,1484.47,1406.5,1464.89,1406.5,1444.88z"/>
				<path d="M705,1515.18c-3.33,0-6.36,0-9.9,0c0-1.17,0-2.25,0-3.33c0-20.7,0.06-41.4-0.07-62.11c-0.02-3.02,0.79-4.1,3.79-3.74
					c1.98,0.23,4,0.04,6.18,0.04C705,1469.25,705,1492.05,705,1515.18z"/>
				<path d="M849.24,1515.16c-3.33,0-6.14,0-9.41,0c0-1.31,0-2.51,0-3.71c0-13.13,0-26.26,0-39.39c0-6.43,0-6.49,6.54-6.26
					c1.19,0.04,2.35,0.75,4.18,1.37c3.41-2.27,7.96-3.13,12.69-1.27c1.01,0.4,2.09,1.95,2.21,3.07c0.31,2.87,0.1,5.8,0.1,9.47
					c-5.43-4.55-10.21-3.98-14.42,0.58c-1.02,1.1-1.78,2.89-1.81,4.38c-0.16,9.39-0.08,18.79-0.08,28.18
					C849.24,1512.68,849.24,1513.79,849.24,1515.16z"/>
				<path d="M529.46,1465.56c3.33,1.01,6.92-1.52,9.57,2.01c3.97-2.62,8.25-3.32,12.87-1.91c1.67,0.51,2.66,1.21,2.51,3.26
					c-0.21,2.87-0.05,5.77-0.05,8.84c-8.09-4.57-10.29-2.14-13.89,1c-1.16,1.01-1.98,3.04-2.01,4.63c-0.19,9.26-0.1,18.53-0.1,27.8
					c0,1.22,0,2.45,0,3.88c-3.06,0-5.84,0-8.88,0C529.46,1498.82,529.46,1482.51,529.46,1465.56z"/>
				<path d="M1020.3,1465.76c0,16.65,0,32.88,0,49.32c-2.97,0-5.85,0-9.23,0c0-1.08,0-2.16,0-3.24c0-14.13,0.1-28.27-0.07-42.4
					c-0.04-3.07,0.88-4.07,3.82-3.71C1016.48,1465.92,1018.18,1465.76,1020.3,1465.76z"/>
				<path d="M1021.83,1454.39c0,3.6-2.72,6.33-6.2,6.24c-3.12-0.08-5.96-3.09-5.92-6.26c0.05-3.31,2.79-6,6.11-5.98
					C1019.29,1448.41,1021.83,1450.95,1021.83,1454.39z"/>
			</g>
			<g>
				<g>
					<path d="M539.87,1391.83c-0.83,4.98-4.45,8.08-9.52,8.08h-31.67c-7.97,0-13.97-3.2-18.11-9.62c-3.42-5.28-5.17-12.21-5.49-20.8
						l-0.31-7.35h6.11l0.31,7.35c0.31,9.1,2.69,15.72,7.24,19.77c3,2.69,6.42,4.03,10.25,4.03h29.9c2.79,0,4.14-1.97,4.14-5.79
						c0-2.28-0.1-10.77-0.41-25.35h7.35C539.77,1367.42,539.87,1377.35,539.87,1391.83z M504.89,1362.14h-7.66v-7.96h7.66V1362.14z
						 M517.52,1362.14h-7.66v-7.96h7.66V1362.14z"/>
					<path d="M573.4,1399.91h-8.89c-2.9,0-5.38-1.03-7.35-3c-2.28-2.17-3.52-5.28-3.52-9.21l-0.31-54.74h7.14l0.31,53.81
						c0,3.83,1.65,6,4.86,6.52h7.76V1399.91z"/>
					<path d="M616.65,1380.45c0,12.11-6.31,19.46-17.07,19.46h-28.87v-6.62h15.01c-2.79-3.62-4.24-7.86-4.24-12.84
						c0-12,6.51-19.45,17.28-19.45c5.49,0,9.93,2.07,13.35,6.2C615.1,1370.83,616.65,1375.28,616.65,1380.45z M609.61,1380.34
						c0-4.24-1.14-7.66-3.31-10.24c-1.97-2.18-4.35-3.32-7.14-3.32s-5.17,1.14-6.94,3.32c-1.97,2.37-3,5.79-3,10.24
						c0,4.35,1.14,7.77,3.31,10.25c1.97,2.17,4.35,3.32,7.14,3.32c2.9,0,5.17-1.15,6.94-3.32
						C608.58,1388.22,609.61,1384.8,609.61,1380.34z"/>
					<path d="M678.43,1399.91H662.7c-3.21,12.84-12.63,21.32-25.77,22.46c-0.62-1.35-1.65-3.42-3-6.42c5.17,0,9.73-1.45,13.56-4.45
						c3.62-2.9,6.31-6.72,7.86-11.59h-9.31c-4.76,0-8.59-1.76-11.59-5.38s-4.24-8.07-4.24-13.14c0.1-6.72,2.38-11.79,6.42-15.31
						c3.2-2.79,6.93-4.14,11.07-4.14c10.76,0,16.14,5.49,16.14,16.35v15.01h14.59V1399.91z M656.7,1393.28v-17.28
						c0-6.11-3-9.21-8.28-9.21c-2.79,0-5.07,1.14-7.04,3.52c-2.18,2.58-3.42,6.1-3.42,10.55c0,6.93,3.83,12.42,9.94,12.42H656.7z"/>
					<path d="M714.64,1399.91h-9.21c-3.11,0-5.69-1.34-7.87-3.93c-1.24-1.45-2.07-2.9-2.58-4.45c-1.97,5.08-7.24,8.08-12.93,8.38
						h-6.83v-6.62h4.86c1.86,0,3.62-0.52,5.38-1.56c2.07-1.44,3.1-3.31,3.1-5.69c0-14.38-0.2-32.18-0.52-53.29h7.14
						c0.11,13.97,0.21,30.73,0.52,50.29c0.11,2.79,1.24,5.28,3.31,7.45c1.86,1.86,3.73,2.79,5.7,2.79h9.93V1399.91z"/>
					<path d="M777.56,1399.91h-20.49c-4.14,0-7.66-1.66-10.55-4.96c-6.11,3.31-12.11,4.96-17.8,4.96h-17.07v-6.62h16.97
						c4.45,0,9.1-1.14,13.86-3.42c-4.14-5.07-7.66-8.79-10.55-11.06c-4.45-3.42-9.1-5.38-14.07-5.69v-8.49
						c6.11-5.79,14.8-8.69,26.18-8.59c7.55,0.1,14.39,1.75,20.6,5.17c3.83,1.97,6.62,4.13,8.49,6.32
						c-5.07,9.72-12.21,17.8-21.53,24.31c1.14,0.83,2.49,1.35,4.24,1.45h3h18.73V1399.91z M764.73,1368.96
						c-1.86-1.14-3.62-2.27-5.38-3.41c-4.45-2.08-9.42-3.11-14.9-3.11c-4.76,0-8.79,0.52-12.21,1.45c-2.38,0.73-5.28,1.97-8.48,3.73
						c8.07,2.17,16.03,8.59,23.8,19.24C754.48,1382.21,760.28,1376.21,764.73,1368.96z"/>
					<path d="M831.68,1399.91h-12.52c-2.79,6.32-7.86,9.42-15.31,9.42c-7.14,0-12.31-3.1-15.52-9.42h-13.35v-6.62h11.17
						c-0.1-1.14-0.2-2.27-0.2-3.42c0-12,6.42-19.35,17.18-19.35c5.49,0,9.93,1.97,13.25,6c3.11,3.73,4.66,8.18,4.66,13.35
						c0,1.15,0,2.28-0.1,3.42h10.55L831.68,1399.91z M813.78,1389.86c0-4.24-1.03-7.76-3.21-10.35c-1.97-2.17-4.35-3.2-7.14-3.2
						c-2.9,0-5.28,1.03-7.04,3.2c-1.97,2.49-2.9,5.91-2.9,10.35c0,4.35,1.14,7.77,3.31,10.25c1.97,2.18,4.35,3.32,7.14,3.32
						s5.17-1.14,6.94-3.32C812.85,1397.63,813.78,1394.21,813.78,1389.86z"/>
					<path d="M850.62,1386.46c0,8.28-4.97,13.45-14.07,13.45h-6.72v-6.62h6.62c4.03,0,7.04-2.39,7.04-7.03
						c0-6.52-0.11-15.43-0.21-26.6c-0.1-12.93-0.2-21.83-0.2-26.7h7.14c0,4.76,0.1,13.67,0.2,26.81
						C850.51,1370.93,850.62,1379.83,850.62,1386.46z"/>
					<path d="M871.73,1399.91h-7.14l-0.52-66.95h7.14L871.73,1399.91z"/>
					<path d="M949.55,1399.91h-10.45c-7.45,0-11.08-3.83-10.97-11.38h-15.22c-7.86,0-11.8-4.96-11.8-14.8
						c0-6.52,1.66-11.48,5.07-14.89c2.69-2.79,6-4.25,9.83-4.25c4.86,0,9.31,2.59,11.38,5.9h0.2v-5.07h7.15v32.7
						c0,3.41,1.45,5.17,4.35,5.17h10.45V1399.91z M927.71,1382.11l-0.11-15.31c-2.48-4.24-5.69-6.42-9.72-6.42
						c-2.59,0-4.76,1.14-6.42,3.42c-1.97,2.37-2.9,5.9-2.9,10.35c0,2.37,0.31,4.03,0.83,5.17c0.83,1.86,2.48,2.79,4.96,2.79H927.71z
						 M916.43,1346.2h-7.66v-8.07h7.66V1346.2z M929.06,1346.2h-7.66v-8.07h7.66V1346.2z"/>
					<path d="M991.87,1399.91h-9.21c-3.11,0-5.69-1.34-7.87-3.93c-1.24-1.45-2.07-2.9-2.58-4.45c-1.97,5.08-7.24,8.08-12.93,8.38
						h-13.56v-6.62h11.48c1.97,0,3.73-0.52,5.38-1.56c2.17-1.44,3.2-3.31,3.2-5.69c0.21,1.66,0.21-6.3-0.1-23.9h7.14
						c0,6.62,0.1,13.14,0.21,19.66c0.1,3.62,1.14,6.52,3.2,8.69c1.76,1.86,3.73,2.79,5.69,2.79h9.93v1.76v3.2V1399.91z
						 M967.65,1415.22h-7.76v-7.96h7.76V1415.22z M980.28,1415.22h-7.66v-7.96h7.66V1415.22z"/>
					<path d="M1033.67,1399.91h-9.21c-3.11,0-5.69-1.34-7.87-3.93c-1.24-1.45-2.07-2.9-2.58-4.45c-1.97,5.08-7.24,8.08-12.93,8.38
						h-13.56v-6.62h11.59c1.97,0,3.73-0.52,5.38-1.56c2.07-1.44,3.1-3.31,3.1-5.69c0.21,1.66,0.21-6.3-0.1-23.9h7.14
						c0,6.62,0.1,13.14,0.21,19.66c0.1,3.62,1.14,6.52,3.2,8.69c1.76,1.86,3.73,2.79,5.69,2.79h9.93v1.76v3.2V1399.91z
						 M1014.63,1353.85h-7.76v-7.96h7.76V1353.85z"/>
					<path d="M1084.89,1393.28v6.62h-10.76c-5.08,0-10.25-1.14-15.63-3.52c-5.27,2.39-10.45,3.52-15.62,3.52h-11.8v-6.62h12.1
						c4.25,0,7.25-0.2,8.79-0.52c-3.83-2.58-6.72-5.9-8.69-10.03c-1.65-3.42-2.48-6.72-2.48-10.04c0-5.69,1.76-10.13,5.28-13.45
						c3.32-3,7.45-4.56,12.31-4.56c4.96,0,9.11,1.56,12.42,4.56c3.62,3.32,5.38,7.76,5.38,13.45c0,3.32-0.83,6.62-2.49,10.04
						c-1.97,4.14-4.86,7.45-8.69,10.03c1.56,0.32,4.56,0.52,8.79,0.52H1084.89z M1055.81,1346.82h-7.66v-7.97h7.66V1346.82z
						 M1068.75,1372.69c0-3.51-0.83-6.42-2.59-8.79c-1.97-2.59-4.54-3.93-7.76-3.93c-3.2,0-5.69,1.34-7.66,3.93
						c-1.76,2.37-2.59,5.28-2.59,8.79c0,4.56,1.45,8.59,4.45,12.11c2.39,3,4.35,4.45,5.9,4.45c1.66,0,3.62-1.45,6.01-4.45
						C1067.31,1381.28,1068.75,1377.24,1068.75,1372.69z M1068.54,1346.82h-7.66v-7.97h7.66V1346.82z"/>
					<path d="M1127.33,1399.91h-9.21c-3.1,0-5.69-1.34-7.86-3.93c-1.25-1.45-2.08-2.9-2.59-4.45c-1.97,5.08-7.25,8.08-12.94,8.38
						h-11.48v-6.62h3.62c3.1-0.1,5.07-0.1,5.9-0.1c1.97,0,3.73-0.52,5.38-1.56c2.07-1.34,3.1-3.2,3.1-5.59
						c0.2,1.66,0.2-6.3-0.1-23.9h7.15c0,6.62,0.1,13.14,0.2,19.66c0.1,3.62,1.14,6.52,3.2,8.69c1.76,1.86,3.73,2.79,5.69,2.79h9.94
						v1.76v3.2V1399.91z M1102.08,1353.75h-7.66v-7.96h7.66V1353.75z M1114.8,1353.75h-7.76v-7.96h7.76V1353.75z"/>
					<path d="M1146.05,1386.46c0,8.28-4.96,13.45-14.07,13.45h-6.72v-6.62h6.62c4.04,0,7.04-2.39,7.04-7.03
						c0-6.52-0.1-15.43-0.2-26.6c-0.11-12.93-0.22-21.83-0.22-26.7h7.15c0,4.76,0.1,13.67,0.2,26.81
						C1145.95,1370.93,1146.05,1379.83,1146.05,1386.46z"/>
					<path d="M1230.69,1380.56c0,12.1-6.42,19.35-17.07,19.35c-5.59,0-10.04-2.07-13.45-6.1c-3.1-3.94-4.66-8.7-4.56-14.29h-6.62
						c-4.24,0-6.32,2.91-6.21,8.6l0.42,34.15h-7.25l-0.51-35.81c-0.1-9.01,4.44-13.56,13.55-13.56h3.2
						c1.76,0.11,3.21,0.11,4.56,0.11c2.28-7.87,7.66-11.8,16.14-11.8c5.49,0,9.84,2.07,13.25,6.11
						C1229.14,1371.03,1230.69,1375.48,1230.69,1380.56z M1223.44,1380.56c0-4.35-1.14-7.77-3.31-10.25
						c-1.97-2.18-4.35-3.32-7.15-3.32c-2.79,0-5.17,1.14-6.93,3.32c-1.97,2.37-2.9,5.79-2.9,10.25c0,4.24,1.14,7.66,3.32,10.24
						c1.97,2.18,4.34,3.32,7.13,3.32c2.9,0,5.28-1.14,7.04-3.32C1222.51,1388.42,1223.44,1385,1223.44,1380.56z"/>
					<path d="M1251.81,1399.91h-7.15l-0.51-66.95h7.13L1251.81,1399.91z"/>
					<path d="M1298.88,1393.28c-0.1,1.14-0.1,3.42-0.1,6.62h-9.2c-4.04,0-7.25-2.17-9.63-6.42c-0.51,8.18-3.31,14.8-8.17,20.07
						c-4.86,5.28-11.08,8.18-18.63,8.8c-0.73-1.25-1.76-3.42-3.1-6.42c6.72,0,12.21-2.39,16.55-7.15
						c4.15-4.66,6.21-10.45,6.21-17.38l-0.1-29.18h7.13l0.1,20.6c0.11,3.1,1.15,5.69,3.21,7.76c1.86,1.76,3.73,2.69,5.69,2.69
						H1298.88z"/>
					<path d="M1322.07,1386.46c0,8.28-4.96,13.45-14.07,13.45h-13.55v-6.62h13.45c4.03,0,7.04-2.39,7.04-7.03
						c0,0.93-0.11-7.04-0.32-24.12h7.15C1321.97,1378.48,1322.07,1386.56,1322.07,1386.46z M1305.42,1415.22h-7.67v-7.96h7.67
						V1415.22z M1318.14,1415.22h-7.66v-7.96h7.66V1415.22z"/>
					<path d="M1399.88,1399.91h-10.45c-7.45,0-11.08-3.83-10.97-11.38h-15.21c-7.86,0-11.79-4.96-11.79-14.8
						c0-6.52,1.65-11.48,5.07-14.89c2.69-2.79,6-4.25,9.83-4.25c4.87,0,9.31,2.59,11.39,5.9h0.2v-5.07h7.13v32.7
						c0,3.41,1.45,5.17,4.35,5.17h10.45V1399.91z M1378.05,1382.11l-0.1-15.31c-2.49-4.24-5.69-6.42-9.74-6.42
						c-2.58,0-4.76,1.14-6.41,3.42c-1.97,2.37-2.9,5.9-2.9,10.35c0,2.37,0.31,4.03,0.82,5.17c0.83,1.86,2.49,2.79,4.98,2.79H1378.05
						z M1366.77,1346.2h-7.66v-8.07h7.66V1346.2z M1379.39,1346.2h-7.66v-8.07h7.66V1346.2z"/>
					<path d="M1451.41,1399.91h-53.49v-6.62h46.05c-0.32-7.45-2.69-13.45-6.94-18.01c-4.24-4.66-9.42-6.93-15.62-6.93
						c-4.76,0-9.52,1.44-14.28,4.24l-3.32-6c0.1-0.1,0.31-0.1,0.52-0.2l24.73-25.78l4.76,4.66l-18.01,17.49
						c2.48-0.42,4.86-0.62,7.13-0.62c9.94,0,17.39,3.83,22.25,11.59C1449.34,1380.24,1451.41,1388.93,1451.41,1399.91z"/>
					<path d="M1498.5,1393.28c-0.1,1.14-0.1,3.42-0.1,6.62h-9.2c-4.04,0-7.25-2.17-9.63-6.42c-0.51,8.18-3.31,14.8-8.17,20.07
						c-4.86,5.28-11.08,8.18-18.63,8.8c-0.73-1.25-1.76-3.42-3.1-6.42c6.72,0,12.21-2.39,16.55-7.15
						c4.15-4.66,6.21-10.45,6.21-17.38l-0.1-29.18h7.13l0.1,20.6c0.11,3.1,1.15,5.69,3.21,7.76c1.86,1.76,3.73,2.69,5.69,2.69
						H1498.5z"/>
					<path d="M1573.22,1387.69c0,8.18-5.8,13.67-13.77,13.67c-3.52,0-6.32-0.62-8.28-1.76c-2.27-1.35-4.13-3.52-5.69-6.62
						c-1.86,5.48-6.2,8.17-12.93,8.17c-3.42,0-6.21-0.51-8.18-1.54c-1.76-0.93-3.2-2.39-4.45-4.35v4.66h-23.38v-6.62h16.45v-16.14
						c0-3.2,0-7.25-0.1-12.01h7.13v18.11c0.22,7.66,4.25,11.5,12.21,11.5c4.04,0,7.04-2.39,7.04-7.04c0-2.17-0.1-9.72-0.32-22.56
						h7.15c0,3.93,0,9.94,0.1,18.11c0.1,3.83,1.34,6.72,3.73,8.7c2.17,1.86,5.17,2.79,8.89,2.79c4.04,0,7.35-2.49,7.35-7.04
						c0-1.97-0.1-10.45-0.31-25.56h7.13C1573.11,1378.48,1573.22,1386.97,1573.22,1387.69z M1540.31,1353.75h-7.76v-7.96h7.76
						V1353.75z M1546.62,1342.69h-7.66v-8.08h7.66V1342.69z M1552.93,1353.75h-7.66v-7.96h7.66V1353.75z"/>
				</g>
			</g>
		</g>
	</g>
</g>
</svg>
